<svg width="228" height="167" viewBox="0 0 228 167" fill="none" xmlns="http://www.w3.org/2000/svg">
<path d="M108.774 39.6852H109.814V14.5485C109.814 10.69 111.551 6.98953 114.643 4.26115C117.735 1.53278 121.929 0 126.302 0H186.658C191.03 0 195.224 1.53278 198.316 4.26115C201.408 6.98953 203.146 10.69 203.146 14.5485V152.451C203.146 156.31 201.408 160.01 198.316 162.739C195.224 165.467 191.03 167 186.658 167H126.302C121.929 167 117.735 165.467 114.643 162.739C111.551 160.01 109.814 156.31 109.814 152.451V57.578H108.774V39.6852Z" fill="#3F3D56"/>
<path d="M125.637 3.78503H133.515C133.153 4.5688 133.015 5.41916 133.113 6.26121C133.21 7.10326 133.542 7.91114 134.077 8.61369C134.612 9.31624 135.334 9.8919 136.181 10.2899C137.028 10.688 137.972 10.8962 138.931 10.8962H173.508C174.467 10.8962 175.412 10.688 176.259 10.2899C177.105 9.8919 177.828 9.31624 178.363 8.61369C178.898 7.91114 179.229 7.10326 179.327 6.26121C179.425 5.41916 179.287 4.5688 178.924 3.78503H186.283C187.9 3.785 189.501 4.06599 190.995 4.61196C192.489 5.15793 193.846 5.95819 194.989 6.96705C196.133 7.97591 197.04 9.17362 197.659 10.4918C198.277 11.8099 198.596 13.2227 198.596 14.6495V152.35C198.596 155.232 197.299 157.995 194.99 160.033C192.68 162.07 189.549 163.215 186.283 163.215H125.637C122.371 163.215 119.239 162.07 116.93 160.033C114.621 157.995 113.324 155.232 113.324 152.35V14.6501C113.324 11.7686 114.621 9.00509 116.93 6.96754C119.239 4.93 122.371 3.78533 125.637 3.78533V3.78503Z" fill="white"/>
<path d="M155.96 127.183C163.682 127.183 169.942 121.659 169.942 114.845C169.942 108.032 163.682 102.508 155.96 102.508C148.238 102.508 141.978 108.032 141.978 114.845C141.978 121.659 148.238 127.183 155.96 127.183Z" fill="#CCCCCC"/>
<path d="M155.96 126.568C163.297 126.568 169.245 121.319 169.245 114.845C169.245 108.371 163.297 103.122 155.96 103.122C148.623 103.122 142.674 108.371 142.674 114.845C142.674 121.319 148.623 126.568 155.96 126.568Z" fill="white"/>
<path d="M153.742 119.973L149.557 115.225L151.99 113.554L153.972 115.803L160.666 109.567L162.905 111.439L153.742 119.973Z" fill="#918FE1"/>
<path d="M122.274 138.838L130.359 135.509V137.412H149.223V140.265H130.359V142.167L122.274 138.838Z" fill="#918FE1"/>
<path d="M187.768 138.838L179.684 135.509V137.412H160.82V140.265H179.684V142.167L187.768 138.838Z" fill="#918FE1"/>
<path d="M188.61 25.7784H123.116V86.4721H188.61V25.7784Z" fill="#E6E6E6"/>
<path d="M146.944 77.0845L141.978 83.9015H145.564L146.944 77.0845Z" fill="#E6E6E6"/>
<path d="M152.739 45.6778C156.701 45.6778 159.912 42.8438 159.912 39.3478C159.912 35.8518 156.701 33.0177 152.739 33.0177C148.777 33.0177 145.565 35.8518 145.565 39.3478C145.565 42.8438 148.777 45.6778 152.739 45.6778Z" fill="#FEB8B8"/>
<path d="M160.74 46.1648C160.74 46.1648 157.429 47.1387 155.774 48.843C154.119 50.5473 150.255 50.7908 150.255 50.7908C150.255 50.7908 146.839 52.4876 145.565 55.4166C144.205 58.538 144.995 62.933 145.565 63.9382C146.668 65.886 146.668 70.7552 146.668 70.7552L145.289 81.9544C145.289 81.9544 140.322 86.0932 144.185 86.5802C148.048 87.0671 154.946 86.3367 159.085 86.5802C163.224 86.8237 167.914 87.3106 166.535 84.8759C165.155 82.4411 163.499 80.7371 165.155 75.8679C166.45 72.0575 166.394 57.8101 166.309 51.7952C166.297 50.9689 166.046 50.1591 165.579 49.4427C165.112 48.7263 164.446 48.1271 163.643 47.7022L160.74 46.1648Z" fill="#3F3D56"/>
<path d="M149.979 83.4146C149.979 83.4146 148.724 85.8534 148.6 87.3099C147.634 98.6309 154.67 87.3099 154.67 87.3099V85.3621L149.979 83.4146Z" fill="#FEB8B8"/>
<path opacity="0.1" d="M156.739 53.8336L157.567 68.6847L149.546 83.019L148.186 82.5622L156.464 69.1711L156.739 53.8336Z" fill="black"/>
<path d="M163.223 49.3297L165.293 48.9645C165.293 48.9645 171.501 52.9815 169.57 61.0159C167.638 69.0503 159.085 81.2234 159.085 81.2234C159.085 81.2234 157.153 83.4147 156.601 83.9017C156.049 84.3886 154.946 83.9017 155.498 84.6321C156.049 85.3625 154.67 85.8495 154.67 85.8495C154.67 85.8495 148.6 85.8495 149.151 83.9017C149.703 81.9539 159.084 68.0758 159.084 68.0758L157.705 55.1722C157.705 55.1722 156.601 48.8427 163.223 49.3297Z" fill="#3F3D56"/>
<path opacity="0.1" d="M165.845 71.85V70.1456L156.465 83.7796L165.845 71.85Z" fill="black"/>
<path d="M147.649 33.4824L146.463 33.0635C146.463 33.0635 148.943 30.6546 152.393 30.8641L151.423 29.9215C151.423 29.9215 153.795 29.0836 155.951 31.2838C157.085 32.4401 158.396 33.7992 159.213 35.3302H160.483L159.953 36.36L161.809 37.3898L159.903 37.2049C160.084 38.0938 160.022 39.0078 159.723 39.8716L159.774 40.6854C159.774 40.6854 157.567 37.671 157.567 37.253V38.3003C157.567 38.3003 156.381 37.3577 156.381 36.7293L155.734 37.4623L155.411 36.3101L151.421 37.4623L152.068 36.5197L149.588 36.8339L150.559 35.6817C150.559 35.6817 147.755 37.044 147.648 38.1953C147.54 39.3466 146.138 40.8156 146.138 40.8156L145.491 39.7684C145.491 39.7684 144.521 35.0545 147.649 33.4824Z" fill="#2F2E41"/>
<path d="M62.9119 62.229C62.0026 59.6717 59.9344 57.3265 57.0746 56.461C54.2147 55.5955 49.2253 56.4045 47.8768 58.8042C45.9331 62.2627 46.8063 66.4977 47.8371 70.2533C48.3745 70.2281 48.9168 70.2083 49.4608 70.1904L50.2305 67.9272V70.1681C54.4762 70.0521 58.8967 70.1249 63.3195 70.1997C63.7157 67.5417 63.8215 64.7861 62.9119 62.229Z" fill="#2F2E41"/>
<path d="M23.8972 159.671L27.4692 160.992L34.9424 149.465L29.6707 147.515L23.8972 159.671Z" fill="#A0616A"/>
<path d="M21.5353 162.389L33.0519 166.648L33.113 166.52C33.6108 165.471 33.6162 164.29 33.1279 163.238C32.6396 162.185 31.6976 161.347 30.509 160.907L23.475 158.306L21.5353 162.389Z" fill="#2F2E41"/>
<path d="M76.2754 105.218C76.4984 104.934 76.6482 104.61 76.714 104.27C76.7799 103.929 76.7604 103.58 76.6567 103.246C76.5531 102.913 76.3679 102.604 76.1142 102.341C75.8605 102.077 75.5445 101.866 75.1884 101.722L67.5116 81.282L62.3704 83.7017L71.533 103.032C71.298 103.576 71.2976 104.178 71.5317 104.722C71.7658 105.266 72.2182 105.716 72.8031 105.985C73.388 106.255 74.0646 106.326 74.7046 106.184C75.3447 106.043 75.9036 105.699 76.2754 105.218V105.218Z" fill="#A0616A"/>
<path d="M66.8102 163.336H70.6828L72.525 150.155H66.8093L66.8102 163.336Z" fill="#A0616A"/>
<path d="M65.8228 166.648H78.3098V166.509C78.3098 165.371 77.7978 164.28 76.8864 163.476C75.975 162.672 74.7389 162.219 73.4498 162.219H65.8225L65.8228 166.648Z" fill="#2F2E41"/>
<path d="M51.2836 88.3683L50.4058 90.3813L50.5812 92.3944L67.4292 90.5364L66.9036 88.833L64.9734 86.8199L51.2836 88.3683Z" fill="#A0616A"/>
<path d="M56.7131 70.2524C60.1006 70.2524 62.8467 67.8293 62.8467 64.8403C62.8467 61.8513 60.1006 59.4282 56.7131 59.4282C53.3256 59.4282 50.5795 61.8513 50.5795 64.8403C50.5795 67.8293 53.3256 70.2524 56.7131 70.2524Z" fill="#A0616A"/>
<path d="M50.3125 90.5259L67.0189 88.9578L67.7416 86.8691C67.9666 86.597 70.087 83.9454 69.6166 81.2944C69.5001 80.6699 69.2394 80.0732 68.8505 79.5414C68.4617 79.0096 67.9531 78.554 67.3563 78.2029L63.2958 74.0064L59.7225 72.1296L52.678 71.5082L52.6537 71.5128L46.3292 72.7757L46.4061 83.0051L50.3125 90.5259Z" fill="#E6E6E6"/>
<path d="M66.5984 91.6101L71.2791 91.1196L71.2669 90.9898C71.2239 90.5338 70.2003 79.7931 69.1518 77.3262C68.0809 74.8062 63.4419 74.0219 63.2452 73.9891L63.1883 73.9799L62.1575 74.5256L65.0023 82.3702L66.5984 91.6101Z" fill="#E6E6E6"/>
<path d="M50.1267 92.3627V95.7632C50.1267 95.7632 45.6152 100.936 48.046 104.916C48.046 104.916 42.8407 113.49 42.4945 116.552L37.6329 130.637C37.6329 130.637 25.4876 141.353 26.5299 149.008L25.8358 151.458L33.8181 154.519L35.5532 152.376L49.087 131.861L60.5382 113.184L62.6202 135.229C62.6202 135.229 61.2323 152.376 65.0494 154.215L65.3963 156.97H73.4963V154.35C73.4963 154.35 76.5006 145.028 74.7655 137.986L75.4596 108.285C75.4596 108.285 72.3367 95.7316 68.5196 93.5882L67.1314 90.525L50.1267 92.3627Z" fill="#2F2E41"/>
<path d="M56.2405 98.7326C56.0989 98.7607 55.9601 98.7986 55.8253 98.8459L45.1164 92.3422L45.3615 89.564L40.6582 88.6898L39.6829 93.5709C39.604 93.9653 39.6724 94.3717 39.8776 94.7289C40.0829 95.0862 40.4139 95.375 40.8211 95.552L54.0852 101.324C54.1356 101.815 54.3541 102.281 54.7118 102.66C55.0695 103.038 55.5494 103.312 56.0877 103.444C56.6259 103.576 57.197 103.561 57.7251 103.4C58.2531 103.239 58.713 102.939 59.0436 102.542C59.3742 102.145 59.5598 101.668 59.5758 101.175C59.5918 100.682 59.4373 100.197 59.133 99.7832C58.8287 99.3697 58.389 99.0478 57.8723 98.8602C57.3556 98.6727 56.7864 98.6283 56.2405 98.7332V98.7326Z" fill="#A0616A"/>
<path d="M45.2183 92.7007L47.3978 79.8713L49.1868 73.2439L46.5138 72.7511C46.4412 72.7274 44.2647 72.0781 42.5062 73.1233C41.2415 73.8769 40.5409 75.3036 40.4239 77.367L39.7164 92.0474L45.2183 92.7007Z" fill="#E6E6E6"/>
<path d="M60.9277 57.7925C59.7492 57.1586 58.3992 56.8156 57.019 56.7995C55.6389 56.7835 54.2791 57.0949 53.0821 57.7012C51.885 58.3076 50.8945 59.1865 50.2141 60.2462C49.5338 61.306 49.1886 62.5075 49.2147 63.7252C52.6432 63.8643 56.2444 63.8991 59.8969 63.907L60.7599 62.0429L61.2687 63.9081C62.3814 63.9081 63.4963 63.9069 64.6134 63.9043C64.659 62.6901 64.3426 61.4866 63.6958 60.414C63.049 59.3415 62.0945 58.4376 60.9277 57.7925Z" fill="#2F2E41"/>
<path d="M0.595225 167H227.405C227.733 167 228 166.87 228 166.71C228 166.55 227.733 166.42 227.405 166.42H0.595225C0.266734 166.42 0 166.55 0 166.71C0 166.87 0.266422 167 0.595225 167Z" fill="#CBCBCB"/>
</svg>
